<mxfile host="www.draw.io" modified="2020-03-08T09:34:11.172Z" agent="Mozilla/5.0 (Macintosh; Intel Mac OS X 10_14_6) AppleWebKit/605.1.15 (KHTML, like Gecko) Version/13.0.5 Safari/605.1.15" etag="z-DLIzz9sbj0muxgr8qP" version="12.8.1" type="github">
  <diagram id="yZPuzWqZlDscrEgrNuKp" name="Page-1">
    <mxGraphModel dx="1454" dy="1179" grid="1" gridSize="10" guides="1" tooltips="1" connect="1" arrows="1" fold="1" page="1" pageScale="1" pageWidth="827" pageHeight="1169" math="0" shadow="0">
      <root>
        <mxCell id="0" />
        <mxCell id="1" parent="0" />
        <mxCell id="irCy03890RKg7VOdBJwZ-12" value="elb www Security Group" style="fontStyle=0;verticalAlign=top;align=center;spacingTop=-2;fillColor=none;rounded=0;whiteSpace=wrap;html=1;strokeColor=#FF0000;strokeWidth=2;dashed=1;container=1;collapsible=0;" parent="1" vertex="1">
          <mxGeometry x="461" y="210" width="519" height="207.25" as="geometry" />
        </mxCell>
        <mxCell id="eXyLr-xfNnozj_OZRMc9-4" value="AWS Cloud" style="outlineConnect=0;gradientColor=none;html=1;whiteSpace=wrap;fontSize=12;fontStyle=0;shape=mxgraph.aws4.group;grIcon=mxgraph.aws4.group_aws_cloud;strokeColor=#AAB7B8;fillColor=none;verticalAlign=top;align=left;spacingLeft=30;fontColor=#AAB7B8;dashed=0;" vertex="1" parent="1">
          <mxGeometry x="220" y="20" width="1230" height="1150" as="geometry" />
        </mxCell>
        <mxCell id="irCy03890RKg7VOdBJwZ-2" value="VPC" style="points=[[0,0],[0.25,0],[0.5,0],[0.75,0],[1,0],[1,0.25],[1,0.5],[1,0.75],[1,1],[0.75,1],[0.5,1],[0.25,1],[0,1],[0,0.75],[0,0.5],[0,0.25]];outlineConnect=0;gradientColor=none;html=1;whiteSpace=wrap;fontSize=12;fontStyle=0;shape=mxgraph.aws4.group;grIcon=mxgraph.aws4.group_vpc;strokeColor=#248814;fillColor=none;verticalAlign=top;align=left;spacingLeft=30;fontColor=#AAB7B8;dashed=0;" parent="1" vertex="1">
          <mxGeometry x="310" y="40" width="1081" height="700" as="geometry" />
        </mxCell>
        <mxCell id="irCy03890RKg7VOdBJwZ-47" value="Public subnet AZ2" style="points=[[0,0],[0.25,0],[0.5,0],[0.75,0],[1,0],[1,0.25],[1,0.5],[1,0.75],[1,1],[0.75,1],[0.5,1],[0.25,1],[0,1],[0,0.75],[0,0.5],[0,0.25]];outlineConnect=0;gradientColor=none;html=1;whiteSpace=wrap;fontSize=12;fontStyle=0;shape=mxgraph.aws4.group;grIcon=mxgraph.aws4.group_security_group;grStroke=0;strokeColor=#248814;fillColor=#E9F3E6;verticalAlign=top;align=left;spacingLeft=30;fontColor=#248814;dashed=0;" parent="1" vertex="1">
          <mxGeometry x="386.5" y="300" width="293.5" height="410" as="geometry" />
        </mxCell>
        <mxCell id="irCy03890RKg7VOdBJwZ-41" value="DMZ AZ1" style="outlineConnect=0;gradientColor=none;html=1;whiteSpace=wrap;fontSize=12;fontStyle=0;shape=mxgraph.aws4.group;grIcon=mxgraph.aws4.group_subnet;strokeColor=#879196;fillColor=none;verticalAlign=top;align=left;spacingLeft=30;fontColor=#879196;dashed=0;" parent="1" vertex="1">
          <mxGeometry x="750" y="304.24" width="220" height="185.76" as="geometry" />
        </mxCell>
        <mxCell id="irCy03890RKg7VOdBJwZ-42" value="Private subnet AZ1" style="points=[[0,0],[0.25,0],[0.5,0],[0.75,0],[1,0],[1,0.25],[1,0.5],[1,0.75],[1,1],[0.75,1],[0.5,1],[0.25,1],[0,1],[0,0.75],[0,0.5],[0,0.25]];outlineConnect=0;gradientColor=none;html=1;whiteSpace=wrap;fontSize=12;fontStyle=0;shape=mxgraph.aws4.group;grIcon=mxgraph.aws4.group_security_group;grStroke=0;strokeColor=#147EBA;fillColor=#E6F2F8;verticalAlign=top;align=left;spacingLeft=30;fontColor=#147EBA;dashed=0;" parent="1" vertex="1">
          <mxGeometry x="1031" y="300" width="260" height="190" as="geometry" />
        </mxCell>
        <mxCell id="irCy03890RKg7VOdBJwZ-31" value="DMZ AZ1" style="outlineConnect=0;gradientColor=none;html=1;whiteSpace=wrap;fontSize=12;fontStyle=0;shape=mxgraph.aws4.group;grIcon=mxgraph.aws4.group_subnet;strokeColor=#879196;fillColor=none;verticalAlign=top;align=left;spacingLeft=30;fontColor=#879196;dashed=0;" parent="1" vertex="1">
          <mxGeometry x="750" y="94.24" width="220" height="185.76" as="geometry" />
        </mxCell>
        <mxCell id="irCy03890RKg7VOdBJwZ-6" value="Public subnet AZ1" style="points=[[0,0],[0.25,0],[0.5,0],[0.75,0],[1,0],[1,0.25],[1,0.5],[1,0.75],[1,1],[0.75,1],[0.5,1],[0.25,1],[0,1],[0,0.75],[0,0.5],[0,0.25]];outlineConnect=0;gradientColor=none;html=1;whiteSpace=wrap;fontSize=12;fontStyle=0;shape=mxgraph.aws4.group;grIcon=mxgraph.aws4.group_security_group;grStroke=0;strokeColor=#248814;fillColor=#E9F3E6;verticalAlign=top;align=left;spacingLeft=30;fontColor=#248814;dashed=0;" parent="1" vertex="1">
          <mxGeometry x="390" y="90" width="290" height="200" as="geometry" />
        </mxCell>
        <mxCell id="irCy03890RKg7VOdBJwZ-22" value="vpc flow logs &amp;nbsp;trust policy to CloudWatch logs" style="rounded=0;whiteSpace=wrap;html=1;verticalAlign=top;" parent="1" vertex="1">
          <mxGeometry x="474" y="800" width="340" height="210" as="geometry" />
        </mxCell>
        <mxCell id="irCy03890RKg7VOdBJwZ-7" value="Private subnet AZ1" style="points=[[0,0],[0.25,0],[0.5,0],[0.75,0],[1,0],[1,0.25],[1,0.5],[1,0.75],[1,1],[0.75,1],[0.5,1],[0.25,1],[0,1],[0,0.75],[0,0.5],[0,0.25]];outlineConnect=0;gradientColor=none;html=1;whiteSpace=wrap;fontSize=12;fontStyle=0;shape=mxgraph.aws4.group;grIcon=mxgraph.aws4.group_security_group;grStroke=0;strokeColor=#147EBA;fillColor=#E6F2F8;verticalAlign=top;align=left;spacingLeft=30;fontColor=#147EBA;dashed=0;" parent="1" vertex="1">
          <mxGeometry x="1031" y="90" width="260" height="190" as="geometry" />
        </mxCell>
        <mxCell id="irCy03890RKg7VOdBJwZ-8" value="NAT Security Group" style="fontStyle=0;verticalAlign=top;align=center;spacingTop=-2;fillColor=none;rounded=0;whiteSpace=wrap;html=1;strokeColor=#FF0000;strokeWidth=2;dashed=1;container=1;collapsible=0;" parent="1" vertex="1">
          <mxGeometry x="443.5" y="447" width="200" height="263" as="geometry" />
        </mxCell>
        <mxCell id="irCy03890RKg7VOdBJwZ-4" value="NAT gateway" style="outlineConnect=0;fontColor=#232F3E;gradientColor=none;strokeColor=#232F3E;fillColor=#ffffff;dashed=0;verticalLabelPosition=bottom;verticalAlign=top;align=center;html=1;fontSize=12;fontStyle=0;aspect=fixed;shape=mxgraph.aws4.resourceIcon;resIcon=mxgraph.aws4.nat_gateway;" parent="irCy03890RKg7VOdBJwZ-8" vertex="1">
          <mxGeometry x="70" y="60.69230769230769" width="60" height="60" as="geometry" />
        </mxCell>
        <mxCell id="irCy03890RKg7VOdBJwZ-10" value="ELB &lt;br&gt;Security Group" style="fontStyle=0;verticalAlign=top;align=center;spacingTop=-2;fillColor=none;rounded=0;whiteSpace=wrap;html=1;strokeColor=#FF0000;strokeWidth=2;dashed=1;container=1;collapsible=0;" parent="1" vertex="1">
          <mxGeometry x="441" y="160" width="200" height="270" as="geometry" />
        </mxCell>
        <mxCell id="eXyLr-xfNnozj_OZRMc9-8" value="" style="outlineConnect=0;fontColor=#232F3E;gradientColor=none;fillColor=#5A30B5;strokeColor=none;dashed=0;verticalLabelPosition=bottom;verticalAlign=top;align=center;html=1;fontSize=12;fontStyle=0;aspect=fixed;pointerEvents=1;shape=mxgraph.aws4.application_load_balancer;" vertex="1" parent="irCy03890RKg7VOdBJwZ-10">
          <mxGeometry x="53.25" y="91" width="78" height="78" as="geometry" />
        </mxCell>
        <mxCell id="irCy03890RKg7VOdBJwZ-13" value="DB www Security Group" style="fontStyle=0;verticalAlign=top;align=center;spacingTop=-2;fillColor=none;rounded=0;whiteSpace=wrap;html=1;strokeColor=#FF0000;strokeWidth=2;dashed=1;container=1;collapsible=0;" parent="1" vertex="1">
          <mxGeometry x="781" y="127.25" width="407" height="342.75" as="geometry" />
        </mxCell>
        <mxCell id="irCy03890RKg7VOdBJwZ-35" value="http(s)" style="edgeStyle=orthogonalEdgeStyle;rounded=0;orthogonalLoop=1;jettySize=auto;html=1;startArrow=classic;startFill=1;endArrow=none;endFill=0;" parent="1" source="eXyLr-xfNnozj_OZRMc9-8" target="eXyLr-xfNnozj_OZRMc9-3" edge="1">
          <mxGeometry relative="1" as="geometry">
            <mxPoint x="339" y="292" as="targetPoint" />
            <mxPoint x="477" y="292" as="sourcePoint" />
          </mxGeometry>
        </mxCell>
        <mxCell id="irCy03890RKg7VOdBJwZ-17" value="" style="outlineConnect=0;fontColor=#232F3E;gradientColor=none;fillColor=#5A30B5;strokeColor=none;dashed=0;verticalLabelPosition=bottom;verticalAlign=top;align=center;html=1;fontSize=12;fontStyle=0;aspect=fixed;pointerEvents=1;shape=mxgraph.aws4.flow_logs;" parent="1" vertex="1">
          <mxGeometry x="538" y="866" width="78" height="78" as="geometry" />
        </mxCell>
        <mxCell id="irCy03890RKg7VOdBJwZ-18" value="" style="outlineConnect=0;dashed=0;verticalLabelPosition=bottom;verticalAlign=top;align=center;html=1;shape=mxgraph.aws3.cloudwatch;fillColor=#759C3E;gradientColor=none;" parent="1" vertex="1">
          <mxGeometry x="678" y="858.5" width="82.5" height="93" as="geometry" />
        </mxCell>
        <mxCell id="irCy03890RKg7VOdBJwZ-19" value="" style="shape=image;html=1;verticalAlign=top;verticalLabelPosition=bottom;labelBackgroundColor=#ffffff;imageAspect=0;aspect=fixed;image=https://cdn2.iconfinder.com/data/icons/amazon-aws-stencils/100/Deployment__Management_copy_IAM-128.png" parent="1" vertex="1">
          <mxGeometry x="410" y="841" width="128" height="128" as="geometry" />
        </mxCell>
        <mxCell id="irCy03890RKg7VOdBJwZ-36" style="edgeStyle=orthogonalEdgeStyle;rounded=0;orthogonalLoop=1;jettySize=auto;html=1;exitX=0.5;exitY=1;exitDx=0;exitDy=0;exitPerimeter=0;" parent="1" edge="1">
          <mxGeometry relative="1" as="geometry">
            <mxPoint x="352" y="328" as="sourcePoint" />
            <mxPoint x="352" y="328" as="targetPoint" />
          </mxGeometry>
        </mxCell>
        <mxCell id="irCy03890RKg7VOdBJwZ-40" value="" style="outlineConnect=0;dashed=0;verticalLabelPosition=bottom;verticalAlign=top;align=center;html=1;shape=mxgraph.aws3.rds;fillColor=#2E73B8;gradientColor=none;" parent="1" vertex="1">
          <mxGeometry x="1081" y="144.5" width="72" height="81" as="geometry" />
        </mxCell>
        <mxCell id="irCy03890RKg7VOdBJwZ-52" value="System Administrator" style="shape=image;html=1;verticalAlign=top;verticalLabelPosition=bottom;labelBackgroundColor=#ffffff;imageAspect=0;aspect=fixed;image=https://cdn2.iconfinder.com/data/icons/amazon-aws-stencils/100/Non-Service_Specific_copy_AWS_Management_Console-128.png" parent="1" vertex="1">
          <mxGeometry x="40" y="604" width="100" height="100" as="geometry" />
        </mxCell>
        <mxCell id="irCy03890RKg7VOdBJwZ-54" value="Website visitors" style="shape=image;html=1;verticalAlign=top;verticalLabelPosition=bottom;labelBackgroundColor=#ffffff;imageAspect=0;aspect=fixed;image=https://cdn4.iconfinder.com/data/icons/small-n-flat/24/user-group-128.png" parent="1" vertex="1">
          <mxGeometry x="50" y="226" width="128" height="128" as="geometry" />
        </mxCell>
        <mxCell id="irCy03890RKg7VOdBJwZ-55" value="http(s)" style="edgeStyle=orthogonalEdgeStyle;rounded=0;orthogonalLoop=1;jettySize=auto;html=1;startArrow=classic;startFill=1;endArrow=none;endFill=0;entryX=1;entryY=0.5;entryDx=0;entryDy=0;" parent="1" target="irCy03890RKg7VOdBJwZ-54" edge="1" source="eXyLr-xfNnozj_OZRMc9-3">
          <mxGeometry relative="1" as="geometry">
            <mxPoint x="270" y="292" as="sourcePoint" />
            <mxPoint x="139" y="291.5" as="targetPoint" />
          </mxGeometry>
        </mxCell>
        <mxCell id="irCy03890RKg7VOdBJwZ-56" value="ssh&lt;br&gt;" style="edgeStyle=orthogonalEdgeStyle;rounded=0;orthogonalLoop=1;jettySize=auto;html=1;startArrow=classic;startFill=1;endArrow=none;endFill=0;entryX=1;entryY=0.5;entryDx=0;entryDy=0;" parent="1" source="irCy03890RKg7VOdBJwZ-57" target="irCy03890RKg7VOdBJwZ-52" edge="1">
          <mxGeometry relative="1" as="geometry">
            <mxPoint x="260" y="520" as="sourcePoint" />
            <mxPoint x="188" y="300" as="targetPoint" />
          </mxGeometry>
        </mxCell>
        <mxCell id="irCy03890RKg7VOdBJwZ-57" value="bastion host / jump box" style="outlineConnect=0;fontColor=#232F3E;gradientColor=none;fillColor=#D86613;strokeColor=none;dashed=0;verticalLabelPosition=bottom;verticalAlign=top;align=center;html=1;fontSize=12;fontStyle=0;aspect=fixed;pointerEvents=1;shape=mxgraph.aws4.t2_instance;" parent="1" vertex="1">
          <mxGeometry x="530" y="630" width="48" height="48" as="geometry" />
        </mxCell>
        <mxCell id="irCy03890RKg7VOdBJwZ-59" value="http(s)" style="edgeStyle=orthogonalEdgeStyle;rounded=0;orthogonalLoop=1;jettySize=auto;html=1;startArrow=classic;startFill=1;endArrow=none;endFill=0;" parent="1" source="irCy03890RKg7VOdBJwZ-15" target="eXyLr-xfNnozj_OZRMc9-8" edge="1">
          <mxGeometry relative="1" as="geometry">
            <mxPoint x="280" y="302" as="sourcePoint" />
            <mxPoint x="610" y="258.75" as="targetPoint" />
          </mxGeometry>
        </mxCell>
        <mxCell id="irCy03890RKg7VOdBJwZ-60" value="http(s)" style="edgeStyle=orthogonalEdgeStyle;rounded=0;orthogonalLoop=1;jettySize=auto;html=1;startArrow=classic;startFill=1;endArrow=none;endFill=0;" parent="1" source="irCy03890RKg7VOdBJwZ-43" target="eXyLr-xfNnozj_OZRMc9-8" edge="1">
          <mxGeometry relative="1" as="geometry">
            <mxPoint x="832" y="249" as="sourcePoint" />
            <mxPoint x="610" y="313.0140000000001" as="targetPoint" />
          </mxGeometry>
        </mxCell>
        <mxCell id="irCy03890RKg7VOdBJwZ-38" value="Auto Scaling group" style="points=[[0,0],[0.25,0],[0.5,0],[0.75,0],[1,0],[1,0.25],[1,0.5],[1,0.75],[1,1],[0.75,1],[0.5,1],[0.25,1],[0,1],[0,0.75],[0,0.5],[0,0.25]];outlineConnect=0;gradientColor=none;html=1;whiteSpace=wrap;fontSize=12;fontStyle=0;shape=mxgraph.aws4.groupCenter;grIcon=mxgraph.aws4.group_auto_scaling_group;grStroke=1;strokeColor=#D86613;fillColor=none;verticalAlign=top;align=center;fontColor=#D86613;dashed=1;spacingTop=25;" parent="1" vertex="1">
          <mxGeometry x="801" y="150" width="130" height="307.25" as="geometry" />
        </mxCell>
        <mxCell id="irCy03890RKg7VOdBJwZ-46" value="" style="outlineConnect=0;dashed=0;verticalLabelPosition=bottom;verticalAlign=top;align=center;html=1;shape=mxgraph.aws3.rds_db_instance_standby_multi_az;fillColor=#2E73B8;gradientColor=none;" parent="1" vertex="1">
          <mxGeometry x="1093" y="362" width="49.5" height="66" as="geometry" />
        </mxCell>
        <mxCell id="irCy03890RKg7VOdBJwZ-15" value="webserver" style="outlineConnect=0;fontColor=#232F3E;gradientColor=none;fillColor=#D86613;strokeColor=none;dashed=0;verticalLabelPosition=bottom;verticalAlign=top;align=center;html=1;fontSize=12;fontStyle=0;aspect=fixed;pointerEvents=1;shape=mxgraph.aws4.t2_instance;" parent="1" vertex="1">
          <mxGeometry x="842" y="215" width="48" height="48" as="geometry" />
        </mxCell>
        <mxCell id="irCy03890RKg7VOdBJwZ-43" value="webserver" style="outlineConnect=0;fontColor=#232F3E;gradientColor=none;fillColor=#D86613;strokeColor=none;dashed=0;verticalLabelPosition=bottom;verticalAlign=top;align=center;html=1;fontSize=12;fontStyle=0;aspect=fixed;pointerEvents=1;shape=mxgraph.aws4.t2_instance;" parent="1" vertex="1">
          <mxGeometry x="842" y="343" width="48" height="48" as="geometry" />
        </mxCell>
        <mxCell id="eXyLr-xfNnozj_OZRMc9-1" value="" style="outlineConnect=0;fontColor=#232F3E;gradientColor=none;fillColor=#277116;strokeColor=none;dashed=0;verticalLabelPosition=bottom;verticalAlign=top;align=center;html=1;fontSize=12;fontStyle=0;aspect=fixed;pointerEvents=1;shape=mxgraph.aws4.bucket_with_objects;" vertex="1" parent="1">
          <mxGeometry x="856" y="841" width="75" height="78" as="geometry" />
        </mxCell>
        <mxCell id="eXyLr-xfNnozj_OZRMc9-3" value="Internet&#xa;gateway" style="outlineConnect=0;fontColor=#232F3E;gradientColor=none;strokeColor=#232F3E;fillColor=#ffffff;dashed=0;verticalLabelPosition=bottom;verticalAlign=top;align=center;html=1;fontSize=12;fontStyle=0;aspect=fixed;shape=mxgraph.aws4.resourceIcon;resIcon=mxgraph.aws4.internet_gateway;" vertex="1" parent="1">
          <mxGeometry x="274" y="260" width="60" height="60" as="geometry" />
        </mxCell>
        <mxCell id="eXyLr-xfNnozj_OZRMc9-5" value="" style="outlineConnect=0;fontColor=#232F3E;gradientColor=none;fillColor=#5A30B5;strokeColor=none;dashed=0;verticalLabelPosition=bottom;verticalAlign=top;align=center;html=1;fontSize=12;fontStyle=0;aspect=fixed;pointerEvents=1;shape=mxgraph.aws4.application_load_balancer;" vertex="1" parent="1">
          <mxGeometry x="310" y="670" width="78" height="78" as="geometry" />
        </mxCell>
        <mxCell id="eXyLr-xfNnozj_OZRMc9-6" value="" style="outlineConnect=0;fontColor=#232F3E;gradientColor=none;fillColor=#5A30B5;strokeColor=none;dashed=0;verticalLabelPosition=bottom;verticalAlign=top;align=center;html=1;fontSize=12;fontStyle=0;aspect=fixed;pointerEvents=1;shape=mxgraph.aws4.application_load_balancer;" vertex="1" parent="1">
          <mxGeometry x="170" y="428" width="78" height="78" as="geometry" />
        </mxCell>
        <mxCell id="eXyLr-xfNnozj_OZRMc9-7" value="" style="outlineConnect=0;fontColor=#232F3E;gradientColor=none;fillColor=#5A30B5;strokeColor=none;dashed=0;verticalLabelPosition=bottom;verticalAlign=top;align=center;html=1;fontSize=12;fontStyle=0;aspect=fixed;pointerEvents=1;shape=mxgraph.aws4.network_load_balancer;" vertex="1" parent="1">
          <mxGeometry x="310" y="670" width="78" height="78" as="geometry" />
        </mxCell>
      </root>
    </mxGraphModel>
  </diagram>
</mxfile>
